<svg height="512pt" viewBox="0 -27 512.00003 512" width="512pt" xmlns="http://www.w3.org/2000/svg"><g fill-rule="evenodd"><path d="m163.695312 317.390625c24.816407 0 42.296876-4.636719 56.109376-11.664063 43.289062-22.027343 50.535156-67.554687 134.632812-67.554687 9.34375 0 18.304688-1.742187 26.566406-4.921875 15.992188-6.15625 29.375-17.695312 37.894532-32.363281 6.367187-10.960938 10.015624-23.671875 10.015624-37.191407 0-40.964843-33.511718-74.480468-74.476562-74.480468-110.929688 0-88.148438-79.214844-190.742188-79.214844-84.882812 0-153.695312 68.8125-153.695312 153.695312 0 46.800782 20.925781 88.714844 53.929688 116.902344l7.132812 68.5c1.539062 14.769532 12.152344 27 27 27h21c14.851562 0 25.464844-12.230468 27-27l.898438-8.636718 2.472656-23.738282c4.699218.433594 9.453125.667969 14.261718.667969zm0 0" fill="#ffba4a"/><path d="m219.804688 305.726562c-13.8125 7.027344-31.292969 11.664063-56.109376 11.664063-4.808593 0-9.5625-.234375-14.261718-.664063l-2.472656 23.734376 1.289062 4.285156c4.28125 14.222656 16.996094 24.246094 31.582031 21.464844l10.3125-1.96875 10.316407-1.964844c14.585937-2.785156 22.71875-16.785156 21.460937-31.582032zm0 0" fill="#ffba4a"/><path d="m381.003906 233.25c31.449219 22.4375 101.425782 118.207031 120.992188 158.84375 0 0-31.914063-124.285156-83.097656-191.207031-8.519532 14.667969-21.902344 26.207031-37.894532 32.363281zm0 0" fill="#f4cdac"/></g><path d="m511.683594 389.605469c-1.289063-5.023438-31.449219-120.992188-80.988282-189.59375 5.265626-11.007813 8.21875-23.324219 8.21875-36.316407 0-46.582031-37.894531-84.480468-84.476562-84.480468-52.574219 0-72.144531-18.476563-92.859375-38.039063-21.441406-20.242187-43.609375-41.175781-97.882813-41.175781-28.695312 0-56.933593 7.535156-81.65625 21.796875-4.785156 2.757813-6.429687 8.871094-3.667968 13.65625 2.757812 4.785156 8.871094 6.425781 13.65625 3.667969 21.691406-12.507813 46.476562-19.121094 71.667968-19.121094 46.320313 0 63.851563 16.554688 84.152344 35.71875 21.59375 20.386719 46.066406 43.496094 106.589844 43.496094 35.554688 0 64.476562 28.925781 64.476562 64.480468 0 11.515626-3.050781 22.328126-8.363281 31.699219-.214843.328125-.410156.667969-.582031 1.015625-7.34375 12.414063-18.722656 22.15625-32.320312 27.425782-.160157.054687-.320313.121093-.476563.1875-7.078125 2.675781-14.734375 4.152343-22.734375 4.152343-27.558594 0-50.101562 4.769531-68.910156 14.589844-4.894532 2.554687-6.792969 8.59375-4.238282 13.492187 1.785157 3.417969 5.269532 5.375 8.875 5.375 1.558594 0 3.140626-.367187 4.617188-1.136718 16.105469-8.40625 35.0625-12.320313 59.65625-12.320313 8.601562 0 16.90625-1.300781 24.730469-3.703125 30.894531 25.566406 94.882812 112.636719 113.820312 151.960938 1.707031 3.550781 5.265625 5.664062 9.011719 5.664062 1.140625 0 2.300781-.195312 3.425781-.605468 4.832031-1.769532 7.539063-6.90625 6.257813-11.886719zm-112.675782-154.195313c7.523438-4.6875 14.25-10.527344 19.949219-17.269531 20.035157 29.742187 36.777344 67.992187 49.183594 101.277344-22.703125-31.957031-49.1875-65.113281-69.132813-84.007813zm0 0"/><path d="m381.5625 163.695312c0-5.523437-4.476562-10-10-10h-.007812c-5.519532 0-9.996094 4.476563-9.996094 10 0 5.519532 4.480468 9.996094 10.003906 9.996094s10-4.476562 10-9.996094zm0 0"/><path d="m233.394531 419.671875h-25.960937l-6.15625-47.371094 1.058594-.203125c18.894531-3.601562 31.324218-21.371094 29.550781-42.246094l-1.570313-18.535156c.78125-.460937 1.566406-.917968 2.335938-1.402344 4.683594-2.933593 6.097656-9.101562 3.164062-13.785156-2.933594-4.679687-9.101562-6.09375-13.785156-3.160156-15.699219 9.835938-34.234375 14.421875-58.335938 14.421875-4.375 0-8.863281-.210937-13.34375-.625-5.457031-.5-10.296874 3.476563-10.863281 8.921875l-2.460937 23.65625c-.007813.035156-.007813.070312-.011719.105469l-.898437 8.613281c-.902344 8.6875-6.625 18.035156-17.054688 18.035156h-21c-10.425781 0-16.148438-9.347656-17.054688-18.035156l-7.132812-68.5c-.265625-2.550781-1.503906-4.902344-3.453125-6.566406-32.042969-27.371094-50.421875-67.210938-50.421875-109.300782 0-25.195312 6.613281-49.980468 19.125-71.675781 2.757812-4.785156 1.117188-10.898437-3.667969-13.65625-4.789062-2.761719-10.898437-1.117187-13.65625 3.664063-14.261719 24.730468-21.800781 52.96875-21.800781 81.667968 0 46.601563 19.769531 90.773438 54.386719 121.839844l6.730469 64.597656c2.167968 20.839844 17.707031 35.964844 36.945312 35.964844h.5v61.574219c0 5.519531 4.476562 10 10 10h34.746094c5.523437 0 10-4.480469 10-10 0-5.523437-4.476563-10-10-10h-24.746094v-51.574219h.5c13.472656 0 25.121094-7.421875 31.644531-19.023437 6.71875 6.105469 15.246094 9.597656 24.289063 9.597656 2.175781 0 4.382812-.207031 6.601562-.621094l7.132813 54.90625c.644531 4.984375 4.890625 8.710938 9.914062 8.710938h34.75c5.523438 0 10-4.476563 10-10 0-5.523438-4.476562-9.996094-10-9.996094zm-75.566406-77.808594-.710937-2.359375 1.269531-12.203125c1.78125.058594 3.550781.085938 5.308593.085938 18.011719 0 33.488282-2.308594 47.308594-7.113281l.957032 11.265624c.738281 8.703126-3.132813 18.960938-13.371094 20.914063l-20.628906 3.933594c-10.242188 1.957031-17.617188-6.15625-20.132813-14.523438zm0 0"/><path d="m55.015625 65.011719c2.71875 0 5.433594-1.105469 7.40625-3.273438 3.714844-4.085937 3.414063-10.414062-.675781-14.128906-4.085938-3.710937-10.410156-3.414063-14.125.675781l-.003906.003906c-3.714844 4.085938-3.410157 10.40625.675781 14.121094 1.914062 1.742188 4.320312 2.601563 6.722656 2.601563zm0 0"/><path d="m251.667969 268.09375-.003907.007812c-4.242187 3.535157-4.8125 9.835938-1.277343 14.082032 1.976562 2.371094 4.820312 3.59375 7.6875 3.59375 2.257812 0 4.527343-.757813 6.398437-2.316406 4.242188-3.535157 4.816406-9.84375 1.28125-14.085938-3.539062-4.242188-9.84375-4.8125-14.085937-1.28125zm0 0"/></svg>