<?xml version="1.0" encoding="utf-8"?>
<!-- Generator: Adobe Illustrator 18.0.0, SVG Export Plug-In . SVG Version: 6.00 Build 0)  -->
<!DOCTYPE svg PUBLIC "-//W3C//DTD SVG 1.1//EN" "http://www.w3.org/Graphics/SVG/1.1/DTD/svg11.dtd">
<svg version="1.1" id="Ebene_1" xmlns="http://www.w3.org/2000/svg" xmlns:xlink="http://www.w3.org/1999/xlink" x="0px" y="0px"
	 viewBox="284.1 0 566.9 283.5" enable-background="new 284.1 0 566.9 283.5" xml:space="preserve">
<rect x="284.1" fill="#FFFFFF" width="566.9" height="283.5"/>
<g>
	<polygon points="567.2,126.8 568,124.4 572.8,124.4 573.7,126.8 	"/>
	<path d="M558.4,117.8c-2.4,0-4.8,0-7.1,0c0-0.1,0-0.2,0-0.3c0-2,2.3-2.9,3.3-2.9c1,0,1.7,0.1,2.8,1.1
		C558,116.2,558.3,117.1,558.4,117.8L558.4,117.8z"/>
	<path d="M548.1,117.8c-8.5,0-14.7,0-14.7,0c-9.9,0-9.3-6.6-9.3-6.6h79.1c0,0-0.7,6.6-8.4,6.6c-2.7,0-11.4,0-21.4,0l0,0l-1.7-3.8
		c0,0-0.1-0.3-0.4-0.3c-0.3,0-0.4,0.4-0.4,0.4l-1.3,3.8l0,0c-3.4,0-6.8,0-10.1,0v-3.9c0-0.9-0.9-0.1-0.9-0.1l-0.7,0.9
		c0,0-1.9-1-3.2-1C553.6,113.7,549.8,114.1,548.1,117.8L548.1,117.8z"/>
	<path d="M547.4,120.2h-13.6c0,0-0.7,6.6,9.3,6.6c0,0,2,0,5.1,0l0,0c-0.5-1.3-0.9-2.9-0.9-5C547.3,121.3,547.4,120.7,547.4,120.2
		L547.4,120.2z"/>
	<path d="M567.2,126.8c2.2,0,4.4,0,6.5,0H567.2z"/>
	<path d="M577.4,126.8c3.3,0,5.9,0,7.5,0c7.7,0,8.4-6.6,8.4-6.6h-18.8l0,0L577.4,126.8L577.4,126.8z"/>
	<polygon points="569.6,120.2 571.1,120.2 571.1,120.2 572.5,123.7 568.4,123.7 569.6,120.2 	"/>
	<path d="M568.6,120.2h-17.3c0,2.7,0,6.1,0,6.1s0,0.2,0.1,0.6l0,0c1.9,0,3.9,0,6.1,0v-2.3h-1.9v-0.9h7.4v0.8h-2v2.4
		c1.7,0,3.5,0,5.2,0l0,0L568.6,120.2L568.6,120.2z"/>
	<path d="M552.8,129.3h4l0,0c0,0-0.5,1-1.9,1C553.3,130.2,552.8,129.3,552.8,129.3L552.8,129.3z"/>
	<path d="M559.7,129.3l0.8,1.2h0.6v-1.2v0h4.4h0l-0.2,0.6h-1.1v0.6h3.9v-0.6h-1.8l0.2-0.6l0,0h8.1l0,0l0.2,0.5H573v0.7h7.1v-0.7
		h-1.5l-0.2-0.5l0,0h4.9c0,0-0.7,6.6-8.4,6.6c-7.5,0-19.9,0-19.9,0c-9.9,0-9.3-6.6-9.3-6.6h4.2l0,0c1.4,1.2,3.3,1.8,4.9,1.8
		c2.6,0,4-1.4,4.4-1.8l0,0L559.7,129.3L559.7,129.3z"/>
	<path d="M530.7,83.7h-36.7c0,0,0,6.8,9.9,6.8h33.8L530.7,83.7z"/>
	<path d="M597.5,83.7H628c0,0,3.5,0.2,3.5,3.3c0,3.1-3.1,3.5-3.1,3.5h-38L597.5,83.7z"/>
	<path d="M540.2,93h-38.4c0,0-0.7,6.6,9.3,6.6c0,0,16.4,0,36.2,0L540.2,93z"/>
	<path d="M572.5,99.6c-5.8,0-11.8,0-17.7,0l0.7-6.6h13.7L572.5,99.6z"/>
	<path d="M581.8,99.6c17.1,0,31.3,0,34,0c7.7,0,8.4-6.6,8.4-6.6h-36L581.8,99.6z"/>
	<path d="M549.5,102.1H512c0,0-0.7,6.6,9.3,6.6c0,0,77.1,0,84.6,0c7.7,0,8.4-6.6,8.4-6.6h-34.9l-4,3.5l-2.2-3.5h-18.3l-0.9,4
		L549.5,102.1z"/>
	<path d="M570.5,91h-14.8c0,0-1.1-6.2,6.2-6.2s9.1,0,9.1,0s3.5,0.2,5.1,2c1.5,1.8,2,3.1,2,3.1H573C573,89.9,572.3,91,570.5,91
		C570.5,91,572.3,91,570.5,91z"/>
	<path d="M355,198.2v-1.6h4.8l14-41.9h2l13.4,41.9h4.7v1.6h-18.6v-1.6h6.1l-3.6-11.3h-12.7l-3.6,11.3h6v1.6H355L355,198.2z
		 M365.8,183.8L365.8,183.8h11.5l-5.5-17.8L365.8,183.8z"/>
	<path d="M410,196.6h5.8v1.6h-19.1v-1.6h5.8v-39.4h-5.8v-1.6h19.7c6.4,0,14,0.8,14,9.7c0,7.2-7,9.7-12.4,10.3v0.1
		c9.2,1.5,11.2,6.9,11.2,17.3c0,2.2,0.2,4.8,5.8,3.6v1.5c-1.6,0.4-3.3,0.8-5,0.8c-5.9,0-9-3.2-9-9.7c0-5.3-0.8-9.2-2.3-10.6
		c-1.6-1.5-3.5-2.3-5.3-2.3H410L410,196.6L410,196.6z M410,174.7L410,174.7h4.8c5.3,0,7.5-2.7,7.5-8.5c0-7.1-1.9-9-7.2-9H410V174.7z
		"/>
	<path d="M581.8,157.3v-1.6H563h-0.3h-13.1v1.6h5.6v26.3l-17.4-27.8h-15v1.6h5.8v39.4h-5.5h-0.2h-4.4l-13.4-41.9h-2l-14,41.9h-4.7
		h-0.1h-5.7v-39.4h5.8v-1.6h-14.9l-8.5,29.1l-8.2-29.1h-15.1v1.6h5.8v39.4h-5.8v1.6h13.4v-1.6h-5.7v-38.3h0.1l11.7,39.9h2l11.7-39.9
		h0.2v38.3h-5.8v1.6h19.1h0.1h12.4v-1.6h-6l3.6-11.3H507l3.6,11.3h-6.1v1.6h18.4h0.2h13.1v-1.6h-5.8v-38.1l24.9,40.5h1.8v-41.8h5.6
		h0.3h5.5v39.4h-5.8v1.6h19.1v-1.6H576v-39.4H581.8L581.8,157.3z M494.9,183.8L494.9,183.8l5.9-17.8l5.5,17.8H494.9z"/>
	<path d="M612.6,196.8c0.6,1.1,1.3,1.3,2,1.3c3.2,0,3.9-2.9,3.9-5.7v-35.1h-6.3v-1.6h19.5v1.6H626v26.3c0,3.7,0.4,5.6-1,8.8
		c-1.9,4.5-5.8,7.4-10.5,7.4c-2.2,0-3.3-0.3-5.3-1.3c-1.6-0.8-2.9-3.8-2.9-5.7l6.4,0C612.7,192.8,612.2,196.1,612.6,196.8
		C612.6,196.8,612.2,196.1,612.6,196.8z"/>
	<path d="M649.1,157.3v18.3c5.6,0,10.5-7.8,10.5-7.8l0,17.8c-0.5-7.1-4.2-8.6-10.5-8.4v19.5h8.3c7.6,0,11.7-12.1,11.7-12.1l0,13.7
		h-33.4v-1.6h5.9v-39.4h-5.9v-1.6h32.5l0,11.5c-1.2-6.1-4.8-8.5-7.8-9.4c-1.5-0.4-3.2-0.5-5.1-0.5H649.1z"/>
	<path d="M738.6,155.7v1.6h5.6v26.3l-17.4-27.8h-15v1.6h5.8v39.4h-5.7h-0.1h-4.6l-13.4-41.9h-2l-14,41.9H673v1.6h12.5v-1.6h-6
		l3.6-11.3h12.7l3.6,11.3h-6.1v1.6h18.5h0.1h13.3v-1.6h-5.8v-38.1l24.9,40.5h1.8v-41.8h5.9v-1.6H738.6L738.6,155.7z M683.8,183.8
		L683.8,183.8l5.9-17.8l5.5,17.8H683.8z"/>
	<path d="M755.7,198.6l0-12.7c1.2,6.1,6.3,11.7,12.5,11.7c4.6,0,8.7-3.7,8.7-8.9c0-5.9-4.9-7.1-9.3-8.7c-1.2-0.4-2.3-0.9-3.5-1.3
		c-5.5-1.8-8.2-6.2-8.2-12.3c0-6.7,4.6-11.2,10.7-11.7c4.7-0.3,6.7,3,8.3,2.6c1.5-0.5,3.6-1.9,3.6-1.9l0,12
		c-2.3-7.1-6.2-11.1-12-11.1c-3.8,0-7.3,3-7.3,7.3c0,4.9,3.1,5.4,6.8,6.5c1.5,0.4,2.6,0.9,3.6,1.2c1.2,0.4,2.6,0.8,3.9,1.5
		c4.9,2.5,6.7,6.8,6.7,12.5c0,8-4.8,14-12.4,14c-2.8,0-6.5-2.8-8.4-2.6C757.6,196.7,755.7,198.6,755.7,198.6z"/>
</g>
</svg>
