<?xml version="1.0" encoding="UTF-8" standalone="no"?>
<!-- Created with Inkscape (http://www.inkscape.org/) -->

<svg
   xmlns:dc="http://purl.org/dc/elements/1.1/"
   xmlns:cc="http://creativecommons.org/ns#"
   xmlns:rdf="http://www.w3.org/1999/02/22-rdf-syntax-ns#"
   xmlns:svg="http://www.w3.org/2000/svg"
   xmlns="http://www.w3.org/2000/svg"
   xmlns:sodipodi="http://sodipodi.sourceforge.net/DTD/sodipodi-0.dtd"
   xmlns:inkscape="http://www.inkscape.org/namespaces/inkscape"
   width="243.99173"
   height="100"
   id="svg3172"
   version="1.1"
   inkscape:version="0.48.1 "
   sodipodi:docname="Nouveau document 2">
  <defs
     id="defs3174" />
  <sodipodi:namedview
     id="base"
     pagecolor="#ffffff"
     bordercolor="#666666"
     borderopacity="1.0"
     inkscape:pageopacity="0.0"
     inkscape:pageshadow="2"
     inkscape:zoom="4.9427905"
     inkscape:cx="121.99586"
     inkscape:cy="50"
     inkscape:document-units="px"
     inkscape:current-layer="layer1"
     showgrid="false"
     fit-margin-top="0"
     fit-margin-left="0"
     fit-margin-right="0"
     fit-margin-bottom="0"
     inkscape:window-width="1366"
     inkscape:window-height="706"
     inkscape:window-x="-8"
     inkscape:window-y="-8"
     inkscape:window-maximized="1" />
  <metadata
     id="metadata3177">
    <rdf:RDF>
      <cc:Work
         rdf:about="">
        <dc:format>image/svg+xml</dc:format>
        <dc:type
           rdf:resource="http://purl.org/dc/dcmitype/StillImage" />
        <dc:title></dc:title>
      </cc:Work>
    </rdf:RDF>
  </metadata>
  <g
     inkscape:label="Calque 1"
     inkscape:groupmode="layer"
     id="layer1"
     transform="translate(-79.002065,185.49499)">
    <g
       transform="matrix(3.1806616,0,0,-3.1806616,-260.86753,1531.5152)"
       id="g19834">
      <path
         d="m 147.795,520.466 5.842,0 0,5.8 -5.842,0 0,-5.8 z"
         style="fill:#dc176f;fill-opacity:1;fill-rule:nonzero;stroke:none"
         id="path308"
         inkscape:connector-curvature="0" />
      <path
         inkscape:connector-curvature="0"
         id="path312"
         style="fill:#f3cf00;fill-opacity:1;fill-rule:nonzero;stroke:none"
         d="m 109.50301,532.80701 c 0.644,0.862 1.307,1.569 1.989,2.076 l -4.637,0" />
      <path
         inkscape:connector-curvature="0"
         id="path316"
         style="fill:#dc176f;fill-opacity:1;fill-rule:nonzero;stroke:none"
         d="m 117.136,527.58701 3.452,0 0,4.82 c -0.359,-1.879 -1.5,-3.2 -3.452,-4.82 m -0.855,4.85 -9.426,0 0,-4.85 4.648,0 1.672,1.373 c 1.779,1.474 2.742,2.424 3.106,3.477" />
      <path
         inkscape:connector-curvature="0"
         id="path320"
         style="fill:#f3cf00;fill-opacity:1;fill-rule:nonzero;stroke:none"
         d="m 120.713,533.87199 c 0,0.353 -0.026,0.689 -0.075,1.011 l -4.562,0 c 0.244,-0.336 0.381,-0.782 0.381,-1.364 0,-0.385 -0.058,-0.738 -0.176,-1.082 l 4.307,0 0,-0.03 c 0.085,0.437 0.125,0.902 0.125,1.411" />
      <path
         inkscape:connector-curvature="0"
         id="path324"
         style="fill:#ab132a;fill-opacity:1;fill-rule:nonzero;stroke:none"
         d="m 116.28101,532.437 c -0.364,-1.053 -1.327,-2.003 -3.106,-3.477 l -1.672,-1.373 5.633,0 c 1.952,1.62 3.092,2.941 3.451,4.82 l 0,0.03" />
      <path
         inkscape:connector-curvature="0"
         id="path328"
         style="fill:#f3cf00;fill-opacity:1;fill-rule:nonzero;stroke:none"
         d="m 115.72301,526.464 c 0.512,0.395 0.983,0.767 1.413,1.124 l -5.633,0 -3.053,-2.504 5.488,0" />
      <path
         inkscape:connector-curvature="0"
         id="path332"
         style="fill:#00a1e3;fill-opacity:1;fill-rule:nonzero;stroke:none"
         d="m 113.938,525.084 -1.307,-1.008 7.956,0 0,1.008 -6.649,0 z m -7.083,0 0,-1.307 1.595,1.307" />
      <path
         inkscape:connector-curvature="0"
         id="path336"
         style="fill:#00854a;fill-opacity:1;fill-rule:nonzero;stroke:none"
         d="m 113.938,525.084 -5.488,0 -1.595,-1.307 0,-3.311 13.732,0 0,3.61 -7.956,0" />
      <path
         inkscape:connector-curvature="0"
         id="path340"
         style="fill:#00a1e3;fill-opacity:1;fill-rule:nonzero;stroke:none"
         d="m 141.929,526.245 c -0.63,-2.002 -1.777,-3.657 -3.332,-4.734 l 1.373,-1.375 4.031,4.035 -2.072,2.074 z m -12.193,12.202 -1.379,1.38 -4.031,-4.035 2.076,-2.077 c 0.631,2 1.78,3.656 3.334,4.732" />
      <path
         inkscape:connector-curvature="0"
         id="path344"
         style="fill:#00854a;fill-opacity:1;fill-rule:nonzero;stroke:none"
         d="m 130.132,530.036 c 0,2.657 0.884,4.758 2.415,5.599 l -2.811,2.812 c -1.554,-1.076 -2.703,-2.732 -3.335,-4.731 l 3.731,-3.733 0,0.053 z m 11.797,-3.791 -3.731,3.735 0,-0.052 c 0,-2.642 -0.874,-4.756 -2.418,-5.601 l 2.817,-2.816 c 1.555,1.077 2.702,2.732 3.332,4.734" />
      <path
         inkscape:connector-curvature="0"
         id="path348"
         style="fill:#00a1e3;fill-opacity:1;fill-rule:nonzero;stroke:none"
         d="m 132.547,535.633 c -1.531,-0.84 -2.415,-2.941 -2.415,-5.598 l 0,-0.053 4.032,4.034 -1.617,1.617 z m 1.617,-9.686 1.616,-1.619 c 1.544,0.845 2.418,2.958 2.418,5.601 l 0,0.051 -0.003,0.002" />
      <path
         inkscape:connector-curvature="0"
         id="path352"
         style="fill:#f3cf00;fill-opacity:1;fill-rule:nonzero;stroke:none"
         d="m 134.19,539.806 c -1.703,0 -3.208,-0.493 -4.454,-1.359 l 2.811,-2.814 c 0.471,0.26 1.003,0.4 1.59,0.4 0.596,0 1.137,-0.149 1.618,-0.423 l 2.857,2.858 c -1.239,0.853 -2.729,1.338 -4.422,1.338 m 4.008,-9.822 0,-0.004 3.731,-3.735 c 0.36,1.148 0.553,2.407 0.553,3.737 l 0,0.054 c 0,1.318 -0.19,2.561 -0.543,3.694" />
      <path
         inkscape:connector-curvature="0"
         id="path356"
         style="fill:#dc176f;fill-opacity:1;fill-rule:nonzero;stroke:none"
         d="m 135.755,535.61 -1.59,-1.594 4.03,-4.034 0.002,0.002 c -0.001,2.623 -0.908,4.756 -2.442,5.626 m 6.184,-1.88 2.062,2.062 -4.031,4.036 -1.358,-1.361 c 1.555,-1.073 2.702,-2.728 3.327,-4.737" />
      <path
         inkscape:connector-curvature="0"
         id="path360"
         style="fill:#ab132a;fill-opacity:1;fill-rule:nonzero;stroke:none"
         d="m 138.61099,538.468 -2.856,-2.858 c 1.534,-0.87 2.44,-3.002 2.442,-5.626 l 3.742,3.747 c -0.626,2.009 -1.773,3.664 -3.328,4.737" />
      <path
         inkscape:connector-curvature="0"
         id="path364"
         style="fill:#f3cf00;fill-opacity:1;fill-rule:nonzero;stroke:none"
         d="m 130.132,529.98199 0,10e-4 -3.731,3.732 c -0.361,-1.148 -0.555,-2.405 -0.555,-3.733 l 0,-0.054 c 0,-1.318 0.187,-2.565 0.536,-3.698 l 3.75,3.751 0,10e-4 z m 8.465,-8.471 -2.817,2.816 c -0.469,-0.258 -1,-0.397 -1.59,-0.397 -0.601,0 -1.144,0.146 -1.625,0.416 l -2.859,-2.86 c 1.235,-0.848 2.727,-1.329 4.432,-1.329 1.709,0 3.212,0.491 4.459,1.354" />
      <path
         inkscape:connector-curvature="0"
         id="path368"
         style="fill:#dc176f;fill-opacity:1;fill-rule:nonzero;stroke:none"
         d="m 126.382,526.23 -2.056,-2.059 4.031,-4.034 1.349,1.349 c -1.56,1.071 -2.702,2.729 -3.324,4.744 m 6.183,-1.884 1.599,1.6 -4.031,4.036 0,-10e-4 c 0,-2.646 0.892,-4.772 2.432,-5.635" />
      <path
         inkscape:connector-curvature="0"
         id="path372"
         style="fill:#ab132a;fill-opacity:1;fill-rule:nonzero;stroke:none"
         d="m 130.132,529.981 -3.75,-3.751 c 0.622,-2.015 1.764,-3.673 3.324,-4.744 l 2.859,2.86 c -1.54,0.863 -2.433,2.989 -2.433,5.635" />
      <path
         inkscape:connector-curvature="0"
         id="path376"
         style="fill:#44397b;fill-opacity:1;fill-rule:nonzero;stroke:none"
         d="m 134.164,534.017 -4.031,-4.034 4.031,-4.036 4.031,4.036" />
      <path
         inkscape:connector-curvature="0"
         id="path380"
         style="fill:#00a1e3;fill-opacity:1;fill-rule:nonzero;stroke:none"
         d="m 161.073,533.01601 c 0,1.932 -0.919,4.406 -3.315,5.666 l 0,-11.564 c 2.051,1.016 3.315,2.955 3.315,5.898" />
      <path
         inkscape:connector-curvature="0"
         id="path384"
         style="fill:#f3cf00;fill-opacity:1;fill-rule:nonzero;stroke:none"
         d="m 153.63699,520.465 4.121,0 0,6.652 c -1.152,-0.571 -2.555,-0.852 -4.121,-0.852" />
      <path
         inkscape:connector-curvature="0"
         id="path388"
         style="fill:#00854a;fill-opacity:1;fill-rule:nonzero;stroke:none"
         d="m 157.758,538.681 c -0.963,0.508 -2.165,0.82 -3.645,0.82 l -0.477,0 0,-13.236 c 1.567,0 2.969,0.281 4.122,0.852" />
      <path
         inkscape:connector-curvature="0"
         id="path392"
         style="fill:#dc176f;fill-opacity:1;fill-rule:nonzero;stroke:none"
         d="m 180.297,537.233 -0.279,-1.928 -5.004,0 -0.001,-0.002 c 2.004,-0.471 3.589,-2.035 4.094,-4.029 1.182,-0.973 1.856,-2.48 1.856,-4.602 0,-4.284 -3.201,-6.578 -7.225,-6.594 l 0,-0.005 c 5.428,0 9.828,4.404 9.828,9.837 0,2.908 -1.262,5.522 -3.269,7.323 m -6.559,2.513 0,-1.002 4.317,0 c -1.303,0.642 -2.767,1.002 -4.317,1.002" />
      <path
         inkscape:connector-curvature="0"
         id="path396"
         style="fill:#dc176f;fill-opacity:1;fill-rule:nonzero;stroke:none"
         d="m 173.73801,535.45399 0,10e-4" />
      <path
         inkscape:connector-curvature="0"
         id="path400"
         style="fill:#00a1e3;fill-opacity:1;fill-rule:nonzero;stroke:none"
         d="m 168.252,530.674 c -0.036,-0.249 -0.055,-0.505 -0.055,-0.764 0,-3.062 2.482,-5.545 5.541,-5.545 l 0,4.778 c -0.711,0 -1.524,-0.219 -2.138,-0.589 l -3.348,2.12 z m 3.913,1.769 c 0.546,0.133 0.943,0.201 1.573,0.225 l 0,2.785 c -0.399,0 -0.786,-0.042 -1.159,-0.123" />
      <path
         inkscape:connector-curvature="0"
         id="path404"
         style="fill:#f3cf00;fill-opacity:1;fill-rule:nonzero;stroke:none"
         d="m 179.106,531.274 c -1.167,0.963 -2.833,1.402 -4.839,1.402 -0.195,0 -0.37,-0.002 -0.529,-0.008 l 0,-3.525 c 2.171,0 3.38,-0.971 3.38,-2.46 0,-1.282 -1.362,-2.192 -3.029,-2.304 2.895,0.18 5.188,2.589 5.188,5.531 0,0.471 -0.06,0.928 -0.171,1.364" />
      <path
         inkscape:connector-curvature="0"
         id="path408"
         style="fill:#00854a;fill-opacity:1;fill-rule:nonzero;stroke:none"
         d="m 172.16499,532.44299 0.414,2.887 c -2.259,-0.481 -4.007,-2.339 -4.328,-4.656 l 3.348,-2.12 c 0.615,0.37 1.427,0.588 2.139,0.588 l 0,3.526 c -0.63,-0.024 -1.027,-0.092 -1.573,-0.225" />
      <path
         inkscape:connector-curvature="0"
         id="path412"
         style="fill:#44397b;fill-opacity:1;fill-rule:nonzero;stroke:none"
         d="m 173.737,535.45399 0.001,0 0,10e-4 -0.001,-10e-4 z m -0.001,-15.381 0.002,0 0,0.005" />
      <path
         inkscape:connector-curvature="0"
         id="path416"
         style="fill:#44397b;fill-opacity:1;fill-rule:nonzero;stroke:none"
         d="m 169.39101,538.73199 c -3.248,-1.605 -5.483,-4.954 -5.483,-8.822 0,-2.675 1.067,-5.095 2.796,-6.869 1.786,-1.831 4.276,-2.968 7.031,-2.968 l 0.002,0.004 0,4.288 c -1.689,0 -3.199,0.758 -4.214,1.949 -0.825,0.968 -1.327,2.223 -1.327,3.596 0,0.259 0.019,0.515 0.055,0.764 0.321,2.317 2.068,4.175 4.328,4.656 0.373,0.081 0.76,0.123 1.158,0.123 l 0,4.293 c -1.544,0 -3.005,-0.358 -4.302,-0.994" />
      <path
         inkscape:connector-curvature="0"
         id="path420"
         style="fill:#000000;fill-opacity:1;fill-rule:nonzero;stroke:none"
         d="m 172.58,535.33099 c 0.373,0.081 0.76,0.123 1.158,0.123 l 0,3.299 -4.306,0 -0.024,-0.01 -1.162,-8.062 0.004,-0.005 0.001,-0.002 c 0.32,2.317 2.069,4.176 4.329,4.657 m -5.879,-12.274 c 0.001,-0.005 0.003,-0.01 0.004,-0.015 1.786,-1.831 4.275,-2.969 7.031,-2.969 l 0.002,4.292 c -1.689,0 -3.199,0.758 -4.214,1.95 l -0.002,0" />
      <path
         inkscape:connector-curvature="0"
         id="path424"
         style="fill:#ab132a;fill-opacity:1;fill-rule:nonzero;stroke:none"
         d="m 180.96201,526.672 c 0,2.122 -0.674,3.629 -1.856,4.602 0.111,-0.436 0.171,-0.893 0.171,-1.364 0,-2.943 -2.292,-5.351 -5.189,-5.531 -0.097,-0.006 -0.24,-0.014 -0.35,-0.014 l 0,-4.287 c 4.024,0.016 7.224,2.31 7.224,6.594 m -7.224,8.781 c 0.437,0 0.865,-0.053 1.274,-0.15 l 0.001,10e-4 5.005,0 0.279,1.928 c -0.668,0.606 -1.462,1.123 -2.255,1.52 l -4.304,0 0,-3.297" />
      <path
         inkscape:connector-curvature="0"
         id="path428"
         style="fill:#44397b;fill-opacity:1;fill-rule:nonzero;stroke:none"
         d="m 153.634,539.50101 -5.84,0 0,-13.236 5.843,0 0,13.236" />
      <path
         inkscape:connector-curvature="0"
         id="path432"
         style="fill:#000000;fill-opacity:1;fill-rule:nonzero;stroke:none"
         d="m 148.864,535.465 0,-2.701 4.772,0 0,6.737 c 0,-2.871 -1.696,-4.036 -4.772,-4.036" />
      <path
         inkscape:connector-curvature="0"
         id="path436"
         style="fill:#00a1e3;fill-opacity:1;fill-rule:nonzero;stroke:none"
         d="m 113.936,535.757 c -0.847,0.027 -1.662,-0.292 -2.445,-0.874 l 4.583,0 c -0.427,0.591 -1.188,0.841 -2.138,0.874" />
      <path
         inkscape:connector-curvature="0"
         id="path440"
         style="fill:#00a1e3;fill-opacity:1;fill-rule:nonzero;stroke:none"
         d="m 120.636,534.883 0.006,0 0,4.618 -6.506,0 c 3.544,0 6.041,-1.684 6.5,-4.618" />
      <path
         inkscape:connector-curvature="0"
         id="path444"
         style="fill:#00a1e3;fill-opacity:1;fill-rule:nonzero;stroke:none"
         d="m 114.136,539.50101 -7.281,0 0,-4.618 c 1.651,2.668 3.892,4.618 7.281,4.618" />
      <path
         inkscape:connector-curvature="0"
         id="path448"
         style="fill:#00854a;fill-opacity:1;fill-rule:nonzero;stroke:none"
         d="m 114.136,539.50101 c -3.389,0 -5.63,-1.95 -7.281,-4.618 l 4.637,0 c 0.783,0.582 1.597,0.9 2.444,0.873 0.949,-0.033 1.711,-0.283 2.139,-0.873 l 4.561,0 c -0.459,2.934 -2.955,4.618 -6.5,4.618" />
      <path
         inkscape:connector-curvature="0"
         id="path452"
         style="fill:#20231e;fill-opacity:1;fill-rule:nonzero;stroke:none"
         d="m 107.40199,513.464 0.511,0 1.305,-2.932 c 0.113,-0.255 0.242,-0.61 0.242,-0.61 l 0.014,0 c 0,0 0.134,0.355 0.247,0.61 l 1.306,2.932 0.504,0 0.397,-4.991 -0.49,0 -0.276,3.493 c -0.022,0.27 -0.014,0.697 -0.014,0.697 l -0.015,0 c 0,0 -0.148,-0.441 -0.263,-0.697 l -1.17,-2.563 -0.461,0 -1.17,2.563 c -0.113,0.249 -0.27,0.711 -0.27,0.711 l -0.014,0 c 0,0 0.007,-0.441 -0.014,-0.711 l -0.276,-3.493 -0.49,0 0.397,4.991 z m 5.922,-4.991 0.49,0 0,4.99 -0.49,0 0,-4.99 z m 2.044,4.991 0.489,0 0,-4.55 2.312,0 0,-0.441 -2.801,0 0,4.991 z m 6.242,-3.4 -2.007,0 -0.568,-1.591 -0.518,0 1.831,4.991 0.524,0 1.83,-4.991 -0.518,0 -0.574,1.591 z m -1.008,2.882 c 0,0 -0.106,-0.412 -0.191,-0.646 l -0.667,-1.81 1.716,0 -0.652,1.81 c -0.085,0.234 -0.192,0.646 -0.192,0.646 l -0.014,0 z m 3.022,0.518 0.476,0 2.546,-3.592 c 0.171,-0.248 0.411,-0.674 0.411,-0.674 l 0.014,0 c 0,0 -0.042,0.411 -0.042,0.674 l 0,3.592 0.489,0 0,-4.991 -0.475,0 -2.546,3.593 c -0.171,0.248 -0.411,0.674 -0.411,0.674 l -0.015,0 c 0,0 0.043,-0.412 0.043,-0.674 l 0,-3.593 -0.49,0 0,4.991 z m 7.647,0.086 c 1.412,0 2.54,-1.115 2.54,-2.549 0,-1.463 -1.128,-2.613 -2.54,-2.613 -1.412,0 -2.54,1.15 -2.54,2.613 0,1.434 1.128,2.549 2.54,2.549 m 0,-4.708 c 1.121,0 2.028,0.938 2.028,2.159 0,1.193 -0.907,2.094 -2.028,2.094 -1.128,0 -2.028,-0.901 -2.028,-2.094 0,-1.221 0.9,-2.159 2.028,-2.159 m 5.468,-0.05 c 0,1.754 2.554,1.981 2.554,3.33 0,0.547 -0.411,0.958 -1.036,0.958 -0.73,0 -1.113,-0.681 -1.113,-0.681 l -0.369,0.249 c 0,0 0.454,0.902 1.511,0.902 0.95,0 1.517,-0.618 1.517,-1.399 0,-1.676 -2.517,-1.911 -2.524,-3.237 l 2.603,0 0,-0.441 -3.114,0 c -0.022,0.114 -0.029,0.22 -0.029,0.319 m 4.185,2.18 c 0,1.434 0.427,2.577 1.724,2.577 1.298,0 1.716,-1.143 1.716,-2.577 0,-1.448 -0.418,-2.584 -1.716,-2.584 -1.297,0 -1.724,1.136 -1.724,2.584 m 2.93,0 c 0,1.186 -0.263,2.115 -1.206,2.115 -0.951,0 -1.213,-0.929 -1.213,-2.115 0,-1.192 0.262,-2.123 1.213,-2.123 0.943,0 1.206,0.931 1.206,2.123 m 1.511,-2.058 1.121,0 0,3.663 c 0,0.142 0.007,0.276 0.007,0.276 l -0.014,0 c 0,0 -0.051,-0.106 -0.249,-0.298 l -0.531,-0.532 -0.313,0.32 1.128,1.121 0.454,0 0,-4.55 1.1,0 0,-0.441 -2.703,0" />
      <path
         inkscape:connector-curvature="0"
         id="path456"
         style="fill:#20231e;fill-opacity:1;fill-rule:nonzero;stroke:none"
         d="m 149.07401,509.438 c 0,0 0.369,-0.582 1.128,-0.582 0.688,0 1.241,0.49 1.241,1.172 0,0.681 -0.553,1.171 -1.262,1.171 -0.532,0 -0.908,-0.27 -0.908,-0.27 l -0.312,0.114 0.27,2.421 2.411,0 0,-0.44 -1.986,0 -0.142,-1.279 c -0.022,-0.177 -0.05,-0.283 -0.05,-0.283 l 0.014,0 c 0,0 0.313,0.191 0.759,0.191 1.001,0 1.717,-0.724 1.717,-1.625 0,-0.924 -0.759,-1.64 -1.731,-1.64 -0.992,0 -1.461,0.709 -1.461,0.709 l 0.312,0.341 z m -42.208,6.166 76.689,0 0,0.205 -76.689,0 0,-0.205 z" />
    </g>
  </g>
</svg>
